<svg xmlns="http://www.w3.org/2000/svg" viewBox="0 0 76.64 64.45"><defs><style>.cls-1,.cls-2{fill:none;stroke:#faf0ca;stroke-miterlimit:10;}.cls-1{stroke-width:3.54px;}.cls-2{stroke-width:1.77px;}.cls-3{isolation:isolate;font-size:8px;fill:#fff;font-family:MyriadPro-Regular, Myriad Pro;letter-spacing:0.05em;}.cls-4{letter-spacing:0.02em;}.cls-5{letter-spacing:0.02em;}.cls-6{letter-spacing:0.05em;}.cls-7{letter-spacing:0.05em;}.cls-8{letter-spacing:0.04em;}</style></defs><g id="Layer_2" data-name="Layer 2"><g id="Layer_1-2" data-name="Layer 1"><path class="cls-1" d="M38.27,42.87l-11.4,5.6a7.31,7.31,0,0,1-3.3.8l-13.2.3a8,8,0,0,1-8.1-8l-.5-24.9a8,8,0,0,1,8-8.3h11.9a8.32,8.32,0,0,0,5.2-1.9l3.2-2.8a7.6,7.6,0,0,1,5.2-1.9h8a7.81,7.81,0,0,1,4.8,1.7L52.57,7a8.16,8.16,0,0,0,5,1.7l9-.2a8.16,8.16,0,0,1,8.3,8.3v24.7a8.22,8.22,0,0,1-8,8.3l-12.7.2a8.91,8.91,0,0,1-3.9-.9l-11.5-6.2Z"/><path class="cls-1" d="M37.47,20.27a.75.75,0,0,0,1.3,0c3.4-4.6,6.4-5.3,9.7-5.2,4.5.1,7.9,3.1,7.9,9.3,0,6.5-7.2,12.5-17.6,17.6-12.2-6.2-18.5-12.2-18.5-18.4,0-5.7,3.1-9,7.5-9A10.75,10.75,0,0,1,37.47,20.27Z"/><path class="cls-2" d="M64.17,12.67a1.76,1.76,0,0,1,1.9,1.8,1.93,1.93,0,0,1-1.6,1.9,1.84,1.84,0,0,1-1.8-2A2.19,2.19,0,0,1,64.17,12.67Z"/><path class="cls-2" d="M9.27,7.47h10.8V5.67A3.67,3.67,0,0,0,16.47,2h-3.6a3.67,3.67,0,0,0-3.6,3.7v1.8Z"/><text class="cls-3" transform="translate(6.63 62.45) scale(1.17 1)">PH<tspan class="cls-4" x="10.27" y="0">O</tspan><tspan class="cls-5" x="15.98" y="0">T</tspan><tspan x="20.14" y="0">OG</tspan><tspan class="cls-6" x="31.62" y="0">R</tspan><tspan class="cls-7" x="36.37" y="0">AP</tspan><tspan class="cls-8" x="46.32" y="0">H</tspan><tspan x="51.88" y="0">Y</tspan></text></g></g></svg>