<svg xmlns="http://www.w3.org/2000/svg" viewBox="0 0 30 18"><defs><style>.cls-1{fill:#faf0ca;}</style></defs><g id="Layer_2" data-name="Layer 2"><g id="Layer_1-2" data-name="Layer 1"><line class="cls-1" y1="1.5" x2="30" y2="1.5"/><path class="cls-1" d="M0,1.5A49.94,49.94,0,0,1,7.5.32C10,.1,12.5,0,15,0s5,.1,7.5.32A49.94,49.94,0,0,1,30,1.5a49.94,49.94,0,0,1-7.5,1.18C20,2.9,17.5,3,15,3s-5-.11-7.5-.33A49.91,49.91,0,0,1,0,1.5Z"/><line class="cls-1" y1="16.5" x2="30" y2="16.5"/><path class="cls-1" d="M0,16.5a49.94,49.94,0,0,1,7.5-1.18C10,15.1,12.5,15,15,15s5,.1,7.5.32A49.94,49.94,0,0,1,30,16.5a49.94,49.94,0,0,1-7.5,1.18c-2.5.22-5,.32-7.5.32s-5-.11-7.5-.33A49.91,49.91,0,0,1,0,16.5Z"/><line class="cls-1" y1="9" x2="30" y2="9"/><path class="cls-1" d="M0,9A49.94,49.94,0,0,1,7.5,7.82c2.5-.22,5-.32,7.5-.32s5,.1,7.5.32A49.94,49.94,0,0,1,30,9a49.94,49.94,0,0,1-7.5,1.18c-2.5.22-5,.32-7.5.32s-5-.11-7.5-.33A49.91,49.91,0,0,1,0,9Z"/></g></g></svg>